PathFileType	4	(X/Y/Z)	/Users/mathieubourgeois/Desktop/Analyse/Traitement/Sujet_06/Data/Transformed_Sujet_06_velo100.trc
DataRate	CameraRate	NumFrames	NumMarkers	Units	OrigDataRate	OrigDataStartFrame	OrigNumFrames
120.000000	120.000000	4	36	mm	120.000000	1165	1864
Frame#	Time	RFHD			RANE			STRN			LANI			LKNE			T10			RHUM			RWRB			C7			LFWT			LTOE			RTOE			LWRA			LBWT			RBWT			RFWT			LKNI			RKNI			RKNE			LANE			RANI			LHEE			RHEE			LHUM			LRAD			RRAD			RWRA			LWRB			LFHD			LBHD			RBHD			RSHO			LSHO			CLAV			LCAR			RCAR			
		X1	Y1	Z1	X2	Y2	Z2	X3	Y3	Z3	X4	Y4	Z4	X5	Y5	Z5	X6	Y6	Z6	X7	Y7	Z7	X8	Y8	Z8	X9	Y9	Z9	X10	Y10	Z10	X11	Y11	Z11	X12	Y12	Z12	X13	Y13	Z13	X14	Y14	Z14	X15	Y15	Z15	X16	Y16	Z16	X17	Y17	Z17	X18	Y18	Z18	X19	Y19	Z19	X20	Y20	Z20	X21	Y21	Z21	X22	Y22	Z22	X23	Y23	Z23	X24	Y24	Z24	X25	Y25	Z25	X26	Y26	Z26	X27	Y27	Z27	X28	Y28	Z28	X29	Y29	Z29	X30	Y30	Z30	X31	Y31	Z31	X32	Y32	Z32	X33	Y33	Z33	X34	Y34	Z34	X35	Y35	Z35	X36	Y36	Z36	

1166	9.708333333333334	283.1834106445312	1370.819946289062	115.8347396850585	-41.56877899169924	593.7230834960938	195.2666625976562	-14.15465641021729	1193.558837890625	52.90742874145501	-66.82805633544922	259.9955139160156	-53.74497222900393	-23.98257255554198	653.7152709960938	-126.4206314086914	-180.1581878662109	1346.534301757812	49.90238952636708	194.345703125	1124.285034179688	257.1040649414062	391.6939697265625	1025.682861328125	177.6882019042969	59.01364517211913	1451.117065429688	56.40673065185538	-161.9876251220703	1104.579833984375	-66.51492309570321	45.95425033569337	139.5466613769531	-134.27099609375	104.3120193481445	475.28125	182.2723236083984	403.6595153808594	1023.325500488281	-133.2978363037109	-321.5157165527344	1141.801879882812	-13.33935070037853	-321.7232971191406	1142.77783203125	96.42977905273426	-162.3727416992188	1107.426147460938	145.3497924804687	-4.094109535217282	605.852783203125	-30.56861114501957	168.6527557373047	890.3900756835938	98.99985504150386	143.6242218017578	928.6190795898438	202.0511779785156	-111.4692459106445	257.8626098632812	-124.5199127197266	-20.21168708801271	588.1674194335938	117.9724731445312	-159.3440551757812	258.5456848144531	-78.00260925292972	-102.2298049926758	598.0257568359375	152.5892639160156	181.1106872558594	1109.905883789062	-207.3391265869141	217.7902374267578	1155.488647460938	-238.4344329833985	239.4223327636718	1158.967407226562	299.35302734375	432.9259338378906	1040.80859375	229.1124420166016	429.2690734863281	1025.198608398438	-191.4159545898438	284.112060546875	1371.872680664062	-27.7460327148438	203.0122680664062	1498.43603515625	-26.30172729492194	202.7662811279297	1517.163330078125	101.6567382812499	82.08819580078122	1417.187622070312	187.6505432128905	74.56860351562501	1410.420166015625	-89.19622039794929	74.10037994384766	1314.652221679688	49.58583831787102	479.7091979980469	1047.533935546875	-111.7592849731445	493.5052490234375	1041.733276367188	140.3936004638672	
1167	9.716666666666667	283.4942321777344	1370.533813476562	115.7487335205078	-29.96762466430667	588.2960205078125	195.5771789550781	-14.3818473815918	1193.619140625	53.13323593139641	-78.21990203857422	264.8171997070312	-53.12248229980471	-21.97070121765135	655.8802490234375	-126.5250701904297	-179.9940338134766	1346.972290039062	49.90521240234364	194.4153747558593	1124.066528320312	257.5573425292968	391.7138061523438	1025.684692382812	177.7978973388672	59.33399200439452	1451.059692382812	56.52913665771476	-162.3812103271484	1105.167846679688	-66.66845703125009	30.45742225646974	140.3255157470703	-133.9909820556641	118.2773971557617	476.0754699707031	182.7307434082031	403.6945190429688	1023.215393066406	-133.2435302734375	-321.9112548828125	1142.304931640625	-13.36191558837901	-322.1349792480469	1143.342041015625	96.36373138427723	-162.9241790771485	1108.163940429688	145.4081420898437	-2.872539997100827	607.9315795898438	-30.7137432098389	169.3900756835938	892.247314453125	97.74308013916011	143.4744110107422	930.372802734375	200.7145080566406	-122.7154083251953	263.8231201171875	-124.014877319336	-10.23334121704103	583.4553833007812	117.5984573364257	-170.3931732177734	266.0719604492188	-77.11981201171878	-90.95086669921876	590.4331665039062	153.1886291503906	180.9586029052735	1109.525756835938	-206.9076385498047	217.5088348388672	1155.022094726562	-238.2054901123047	239.5526580810547	1158.80419921875	299.7381896972656	432.9903869628906	1040.83837890625	229.1811065673828	429.2297668457031	1025.07861328125	-191.3750457763672	284.2886047363281	1371.585571289062	-27.81312751770025	203.2480010986328	1498.190551757812	-26.29364204406745	203.1425628662109	1516.890625	101.6405944824218	82.44321441650388	1417.04833984375	187.8627777099609	74.83385467529298	1410.321166992188	-88.99700164794929	74.14408874511719	1314.610473632812	49.67333602905266	479.7065734863281	1047.526489257812	-111.7272872924805	493.1823120117188	1041.975708007812	141.0264587402344	
1168	9.725	283.6508483886719	1370.183471679688	115.6641082763671	-18.47901725769045	581.4616088867188	195.9905853271484	-14.76514053344727	1193.62109375	53.32663345336907	-90.1357421875	270.6186828613281	-51.89027786254886	-18.86198043823241	658.6820678710938	-126.7421493530274	-179.9578094482422	1347.334350585938	49.86424255371083	194.40576171875	1123.90625	257.8274536132812	391.6957092285156	1025.723754882812	177.8494567871094	59.56970214843749	1450.953857421875	56.60488128662101	-162.8052368164062	1105.63525390625	-66.75753784179696	15.10195636749269	142.2754058837891	-133.8103179931641	134.8635711669922	473.3307800292969	181.2618408203125	403.69482421875	1023.054077148438	-133.1740875244141	-322.3489379882812	1142.699096679688	-13.44679260253917	-322.6647033691406	1143.773071289062	96.16808319091786	-163.5933074951172	1108.793701171875	145.5514831542968	-0.4888971447944603	610.5867309570312	-31.00477790832523	169.6203155517578	892.36572265625	96.51631164550777	142.9173583984375	930.4887084960938	199.3516235351562	-133.3597106933593	271.0915832519531	-123.5457458496094	0.8130388855933998	577.3157348632812	118.3518676757812	-180.8546752929688	274.8346862792969	-76.27733612060551	-79.25648498535158	581.21337890625	154.8751068115234	180.6966247558594	1109.091064453125	-206.4113006591797	217.1713256835938	1154.528442382812	-237.9893035888672	239.5898895263672	1158.65625	300.0053100585938	432.978759765625	1040.86181640625	229.2235107421875	429.1511535644531	1024.950805664062	-191.3668823242188	284.3244323730469	1371.22509765625	-27.91561508178716	203.3820343017578	1497.85009765625	-26.33617019653327	203.4330139160156	1516.570556640625	101.5601577758788	82.62757873535153	1416.927368164062	187.9776458740234	75.0059280395508	1410.176513671875	-88.84397125244148	74.06926727294922	1314.503662109375	49.76979827880852	479.6614379882812	1047.529296875	-111.740837097168	493.1647033691406	1041.923461914062	141.0579681396484	
1169	9.733333333333333	283.6867370605469	1369.77001953125	115.5240402221679	-7.472978115081811	573.2801513671875	196.5996551513672	-15.2281608581543	1193.611572265625	53.47779464721673	-101.9280014038086	277.4557189941406	-50.3996276855469	-14.92281532287596	662.0226440429688	-127.1256942749024	-180.0566253662109	1347.589233398438	49.770595550537	194.3153686523437	1123.794799804688	257.9666748046874	391.6189270019531	1025.778442382812	177.8367156982422	59.62555694580077	1450.801147460938	56.63782501220695	-163.2040405273438	1105.914428710938	-66.74795532226571	0.2493634670972988	145.590576171875	-133.4615173339844	149.2505187988281	469.9008178710938	180.5830841064453	403.6414184570312	1022.922729492188	-133.1507720947266	-322.8000183105469	1142.965942382812	-13.55989837646495	-323.1785278320312	1143.981079101562	95.92192840576161	-164.301254272461	1109.257202148438	145.6766052246093	2.747707128524784	613.871826171875	-31.43701934814457	169.4014129638672	890.6315307617188	95.33011627197261	146.7685394287109	926.9854125976562	191.8153381347656	-143.3325653076172	279.5610046386719	-123.1556854248047	9.613357543945298	569.3445434570312	119.1225509643554	-190.8652038574219	284.5520324707031	-76.04537200927739	-68.87840270996095	571.2953491210938	155.2552185058593	180.4420166015625	1108.634521484375	-205.9609680175782	216.7830200195313	1154.036743164062	-237.7850952148438	239.4994354248047	1158.54296875	300.1602783203125	432.89111328125	1040.863037109375	229.2053680419922	429.0476684570312	1024.86181640625	-191.3831634521484	284.2094116210938	1370.7353515625	-28.05932807922368	203.3797607421875	1497.457275390625	-26.43544006347663	203.6094970703125	1516.232666015625	101.4505004882812	82.60646057128903	1416.766479492188	188.0614318847655	75.00234222412111	1409.9677734375	-88.75020599365241	73.87359619140625	1314.255004882812	49.94636154174798	479.6002807617188	1047.568481445312	-111.7873992919922	493.4506225585938	1041.66650390625	140.4964904785156	
